<svg xmlns="http://www.w3.org/2000/svg" viewBox="0 0 400 400" width="400" height="400">
  <!-- 背景 -->
  <rect width="400" height="400" fill="#111"/>

  <!-- 太陽 -->
  <circle cx="200" cy="130" r="42" fill="none" stroke="white" stroke-width="6"/>
  <circle cx="200" cy="130" r="28" fill="white"/>

  <!-- 陽光の反射（水面） -->
  <line x1="200" y1="175" x2="200" y2="210" stroke="white" stroke-width="5" stroke-linecap="round"/>
  <line x1="185" y1="180" x2="175" y2="215" stroke="white" stroke-width="3.5" stroke-linecap="round"/>
  <line x1="215" y1="180" x2="225" y2="215" stroke="white" stroke-width="3.5" stroke-linecap="round"/>
  <line x1="168" y1="190" x2="150" y2="222" stroke="white" stroke-width="2.5" stroke-linecap="round"/>
  <line x1="232" y1="190" x2="250" y2="222" stroke="white" stroke-width="2.5" stroke-linecap="round"/>
  <line x1="152" y1="202" x2="128" y2="230" stroke="white" stroke-width="2" stroke-linecap="round"/>
  <line x1="248" y1="202" x2="272" y2="230" stroke="white" stroke-width="2" stroke-linecap="round"/>

  <!-- 水平線 -->
  <line x1="30" y1="240" x2="370" y2="240" stroke="white" stroke-width="2.5" stroke-linecap="round"/>

  <!-- 波 1 -->
  <path d="M20 270 Q70 252 120 270 Q170 288 220 270 Q270 252 320 270 Q355 282 380 270"
        fill="none" stroke="white" stroke-width="5" stroke-linecap="round"/>

  <!-- 波 2 -->
  <path d="M20 305 Q65 288 110 305 Q155 322 200 305 Q245 288 290 305 Q335 322 380 305"
        fill="none" stroke="white" stroke-width="4" stroke-linecap="round"/>

  <!-- 波 3 -->
  <path d="M20 338 Q60 323 100 338 Q140 353 180 338 Q220 323 260 338 Q300 353 340 338 Q365 328 380 338"
        fill="none" stroke="white" stroke-width="3" stroke-linecap="round"/>

  <!-- 白波 -->
  <path d="M30 268 Q50 263 70 268" fill="none" stroke="white" stroke-width="2" stroke-linecap="round" opacity="0.7"/>
  <path d="M160 268 Q185 263 210 268" fill="none" stroke="white" stroke-width="2" stroke-linecap="round" opacity="0.7"/>
  <path d="M300 268 Q325 263 350 268" fill="none" stroke="white" stroke-width="2" stroke-linecap="round" opacity="0.7"/>
</svg>
